<?xml version="1.0" encoding="UTF-8" standalone="no"?>
<svg
   xmlns:dc="http://purl.org/dc/elements/1.1/"
   xmlns:cc="http://creativecommons.org/ns#"
   xmlns:rdf="http://www.w3.org/1999/02/22-rdf-syntax-ns#"
   xmlns:svg="http://www.w3.org/2000/svg"
   xmlns="http://www.w3.org/2000/svg"
   xmlns:sodipodi="http://sodipodi.sourceforge.net/DTD/sodipodi-0.dtd"
   xmlns:inkscape="http://www.inkscape.org/namespaces/inkscape"
   height="16"
   viewBox="0 0 16 16"
   width="16"
   id="svg2"
   version="1.1"
   inkscape:version="0.91 r13725"
   sodipodi:docname="more_vert_white.svg"
   inkscape:export-filename="C:\Users\Peri Hartman\Documents\software\xamarin\CloudTest\CloudTest\Assets\icons\more_vert_white.png"
   inkscape:export-xdpi="90"
   inkscape:export-ydpi="90">
  <metadata
     id="metadata12">
    <rdf:RDF>
      <cc:Work
         rdf:about="">
        <dc:format>image/svg+xml</dc:format>
        <dc:type
           rdf:resource="http://purl.org/dc/dcmitype/StillImage" />
        <dc:title />
      </cc:Work>
    </rdf:RDF>
  </metadata>
  <defs
     id="defs10" />
  <sodipodi:namedview
     pagecolor="#ffffff"
     bordercolor="#666666"
     borderopacity="1"
     objecttolerance="10"
     gridtolerance="10"
     guidetolerance="10"
     inkscape:pageopacity="0"
     inkscape:pageshadow="2"
     inkscape:window-width="1416"
     inkscape:window-height="1136"
     id="namedview8"
     showgrid="true"
     inkscape:zoom="32"
     inkscape:cx="8.65625"
     inkscape:cy="3.0534367"
     inkscape:window-x="0"
     inkscape:window-y="0"
     inkscape:window-maximized="0"
     inkscape:current-layer="svg2"
     showguides="false">
    <inkscape:grid
       type="xygrid"
       id="grid4137" />
  </sodipodi:namedview>
  <path
     d="M 0,-8 24,-8 24,16 0,16 0,-8 Z"
     id="path4"
     inkscape:connector-curvature="0"
     style="fill:none" />
  <path
     d="m 8.1350663,4.0759566 c 1.1000005,0 2.0000007,-0.9 2.0000007,-2 0,-1.09999998 -0.9000002,-1.99999998 -2.0000007,-1.99999998 -1.1,0 -2,0.9 -2,1.99999998 0,1.1 0.9,2 2,2 z m 0,2 c -1.1,0 -2,0.9 -2,2 0,1.1000001 0.9,2.0000004 2,2.0000004 1.1000005,0 2.0000007,-0.9000003 2.0000007,-2.0000004 0,-1.1 -0.9000002,-2 -2.0000007,-2 z m 0,6.0000004 c -1.1,0 -2,0.9 -2,2 0,1.1 0.9,2 2,2 1.1000005,0 2.0000007,-0.9 2.0000007,-2 0,-1.1 -0.9000002,-2 -2.0000007,-2 z"
     id="path6"
     inkscape:connector-curvature="0"
     inkscape:export-xdpi="90"
     inkscape:export-ydpi="90" />
  <path
     style="opacity:1;fill:#ffffff;fill-opacity:1;stroke:none;stroke-width:3;stroke-linecap:butt;stroke-linejoin:round;stroke-miterlimit:4;stroke-dasharray:none;stroke-opacity:1"
     d="M 7.1018353,3.6942701 C 6.1645123,3.0998375 5.911694,1.7929988 6.5731393,0.96139682 c 0.367069,-0.4614972 1.068805,-0.8379826 1.561927,-0.8379826 0.493122,0 1.1948585,0.3764854 1.5619275,0.8379826 C 10.358439,1.7929988 10.105621,3.0998375 9.1682978,3.6942701 8.7998098,3.9279587 8.5891073,3.987821 8.1350663,3.987821 c -0.454041,0 -0.664743,-0.059862 -1.033231,-0.2935509 z"
     id="path4140"
     inkscape:connector-curvature="0"
     inkscape:export-xdpi="90"
     inkscape:export-ydpi="90" />
  <path
     style="opacity:1;fill:#ffffff;fill-opacity:1;stroke:none;stroke-width:3;stroke-linecap:butt;stroke-linejoin:round;stroke-miterlimit:4;stroke-dasharray:none;stroke-opacity:1"
     d="M 7.1018353,9.6942697 C 6.1645123,9.0998377 5.911694,7.7929986 6.5731393,6.9613966 c 0.367069,-0.461497 1.068805,-0.837982 1.561927,-0.837982 0.493122,0 1.1948585,0.376485 1.5619275,0.837982 0.6614452,0.831602 0.4086272,2.1384411 -0.528696,2.7328731 -0.368488,0.233689 -0.5791905,0.293551 -1.0332315,0.293551 -0.454041,0 -0.664743,-0.05986 -1.033231,-0.293551 z"
     id="path4142"
     inkscape:connector-curvature="0"
     inkscape:export-xdpi="90"
     inkscape:export-ydpi="90" />
  <path
     style="opacity:1;fill:#ffffff;fill-opacity:1;stroke:none;stroke-width:3;stroke-linecap:butt;stroke-linejoin:round;stroke-miterlimit:4;stroke-dasharray:none;stroke-opacity:1"
     d="m 7.1018353,15.69427 c -0.937323,-0.594432 -1.1901413,-1.901271 -0.528696,-2.732873 0.367069,-0.461497 1.068805,-0.837982 1.561927,-0.837982 0.493122,0 1.1948585,0.376485 1.5619275,0.837982 0.6614452,0.831602 0.4086272,2.138441 -0.528696,2.732873 -0.368488,0.233689 -0.5791905,0.293551 -1.0332315,0.293551 -0.454041,0 -0.664743,-0.05986 -1.033231,-0.293551 z"
     id="path4144"
     inkscape:connector-curvature="0"
     inkscape:export-xdpi="90"
     inkscape:export-ydpi="90" />
</svg>
